# xmcd
# 
# Track frame offsets:
#     150
#     14281
#     28311
#     38579
#     47304
#     59914
#     71263
#     85987
#     98926
#     112923
#     120959
#     136923
#     152646
#     162106
#     178125
#     190340
#     202281
#     215310
#     225504
#     240980
# 
# Disc length: 3414
# 
# Revision: 3
# Processed by: cddbd v1.5.2PL0 Copyright (c) Steve Scherf et al.
# Submitted via: fre:ac v1.0.31
# 
DISCID=070d5414
DTITLE=Various Artist - Deutsche Schlager
DYEAR=2007
DGENRE=Schlager
TTITLE0=Costa Cordalis - Anita
TTITLE1=Bata Illic - Michaela
TTITLE2=Wencke Myhre - Beiß' nicht gleich in jeden Apfel
TTITLE3=Bill Ramsey - Souveniers, Souveniers
TTITLE4=Roberto Blanco - Ein bißchen Spaß muß sein
TTITLE5=Peter Kraus - Sugar Baby
TTITLE6=Die kleine Cornelia - Pack' die Badehose ein
TTITLE7=Caterina Valente - Ganz Paris träumt von der Liebe
TTITLE8=Hans Albers - Auf der Reeperbahn nachts um halb eins
TTITLE9=Peter Alexander and Orchester Karl Loube - Sag' beim Abschied leise Servus
TTITLE10=Freddy Quinn - Heimweh
TTITLE11=Karat - Über sieben Brücken
TTITLE12=Paul Kuhn - Der Mann am Klavier
TTITLE13=Peter Rubin - Wir zwei fahren irgendwo hin
TTITLE14=Siw Malmkvist - Die Liebe ist ein seltsames Spiel
TTITLE15=Dorthe - Wärst Du doch in Düsseldorf geblieben
TTITLE16=Hans Albers and Heinz Rühmann - Jawohl, meine Herr'n
TTITLE17=Comedian Harmonists - Mein kleiner grüner Kaktus
TTITLE18=Vicky Leandros - Die Bouzouki klang durch die Sommernacht
TTITLE19=Nina and Mike - Paloma Blanca
EXTD=
EXTT0=
EXTT1=
EXTT2=
EXTT3=
EXTT4=
EXTT5=
EXTT6=
EXTT7=
EXTT8=
EXTT9=
EXTT10=
EXTT11=
EXTT12=
EXTT13=
EXTT14=
EXTT15=
EXTT16=
EXTT17=
EXTT18=
EXTT19=
PLAYORDER=
